<svg version="1.1" viewBox="0.0 0.0 757.0288713910761 425.8293963254593" fill="none" stroke="none" stroke-linecap="square" stroke-miterlimit="10" xmlns:xlink="http://www.w3.org/1999/xlink" xmlns="http://www.w3.org/2000/svg"><clipPath id="p.0"><path d="m0 0l757.0289 0l0 425.8294l-757.0289 0l0 -425.8294z" clip-rule="nonzero"/></clipPath><g clip-path="url(#p.0)"><path fill="#e7f7fc" d="m0 0l757.0289 0l0 425.8294l-757.0289 0z" fill-rule="evenodd"/><path fill="#000000" fill-opacity="0.0" d="m-71.485565 101.2664l900.0 0l0 174.5197l-900.0 0z" fill-rule="evenodd"/><path fill="#000000" d="m104.545685 194.33391l0 -13.25q0 -6.1875 -1.15625 -11.6875q-1.15625 -5.5 -3.34375 -10.125q-2.0 -4.0625 -4.78125 -7.4375q-2.78125 -3.375 -6.46875 -5.75q-3.6875 -2.5 -8.28125 -3.84375q-4.59375 -1.34375 -9.84375 -1.34375q-5.1875 0 -9.625 1.3125q-4.4375 1.3125 -8.0 3.75q-3.625 2.5 -6.40625 6.0q-2.78125 3.5 -4.71875 7.8125q-2.0 4.5625 -3.03125 9.9375q-1.03125 5.375 -1.03125 11.375l0 13.25q0 5.625 0.90625 10.6875q0.90625 5.0625 2.65625 9.375q1.9375 4.6875 4.8125 8.40625q2.875 3.71875 6.5 6.34375q3.6875 2.5 8.1875 3.875q4.5 1.375 9.8125 1.375q5.0 0 9.34375 -1.21875q4.34375 -1.21875 7.96875 -3.40625q4.0 -2.5 7.125 -6.25q3.125 -3.75 5.25 -8.25q2.0 -4.5 3.0625 -9.78125q1.0625 -5.28125 1.0625 -11.15625zm-17.8125 -13.375l0 13.375q0 3.375 -0.34375 6.5q-0.34375 3.125 -1.03125 5.75q-0.875 3.375 -2.34375 6.03125q-1.46875 2.65625 -3.59375 4.40625q-1.6875 1.4375 -3.875 2.1875q-2.1875 0.75 -4.8125 0.75q-2.75 0 -4.90625 -0.8125q-2.15625 -0.8125 -3.84375 -2.3125q-1.8125 -1.6875 -3.15625 -4.40625q-1.34375 -2.71875 -2.03125 -6.03125q-0.625 -2.625 -0.875 -5.6875q-0.25 -3.0625 -0.25 -6.375l0 -13.375q0 -3.5 0.28125 -6.6875q0.28125 -3.1875 0.90625 -5.875q0.8125 -3.5 2.28125 -6.125q1.46875 -2.625 3.59375 -4.375q1.5625 -1.1875 3.53125 -1.8125q1.96875 -0.625 4.40625 -0.625q2.5625 0 4.65625 0.6875q2.09375 0.6875 3.78125 1.9375q2.125 1.6875 3.6875 4.34375q1.5625 2.65625 2.5 6.03125q0.75 2.6875 1.09375 5.84375q0.34375 3.15625 0.34375 6.65625zm78.375 28.4375q0 2.4375 -1.0 4.46875q-1.0 2.03125 -2.875 3.46875q-1.875 1.4375 -4.59375 2.25q-2.71875 0.8125 -6.21875 0.8125q-3.9375 0 -7.21875 -0.875q-3.28125 -0.875 -5.59375 -2.75q-2.375 -1.875 -3.6875 -4.8125q-1.3125 -2.9375 -1.4375 -7.0625l-17.25 0q0 7.0625 2.71875 12.3125q2.71875 5.25 7.40625 9.125q4.9375 3.9375 11.59375 5.96875q6.65625 2.03125 13.46875 2.03125q6.9375 0 12.8125 -1.65625q5.875 -1.65625 10.125 -4.90625q4.25 -3.1875 6.65625 -7.84375q2.40625 -4.65625 2.40625 -10.65625q0 -6.9375 -3.1875 -12.25q-3.1875 -5.3125 -8.5625 -9.3125q-3.5625 -2.4375 -7.8125 -4.3125q-4.25 -1.875 -8.9375 -3.1875q-4.375 -1.1875 -7.84375 -2.5625q-3.46875 -1.375 -5.90625 -3.0625q-2.4375 -1.625 -3.71875 -3.6875q-1.28125 -2.0625 -1.28125 -4.625q0 -2.4375 0.96875 -4.53125q0.96875 -2.09375 2.84375 -3.65625q1.875 -1.5 4.59375 -2.34375q2.71875 -0.84375 6.21875 -0.84375q3.8125 0 6.65625 1.03125q2.84375 1.03125 4.78125 2.84375q1.875 1.875 2.84375 4.4375q0.96875 2.5625 1.09375 5.625l17.125 0q0 -6.125 -2.375 -11.25q-2.375 -5.125 -6.625 -8.875q-4.25 -3.6875 -10.15625 -5.75q-5.90625 -2.0625 -13.03125 -2.0625q-6.875 0 -12.75 1.78125q-5.875 1.78125 -10.1875 5.09375q-4.3125 3.3125 -6.75 8.0q-2.4375 4.6875 -2.4375 10.4375q0 5.0 1.84375 9.25q1.84375 4.25 5.46875 7.75q3.625 3.5 9.34375 6.4375q5.71875 2.9375 13.28125 5.0q4.875 1.3125 8.15625 2.84375q3.28125 1.53125 5.34375 3.34375q2.0 1.875 2.84375 4.0q0.84375 2.125 0.84375 4.5625zm33.4375 -67.25l0 14.1875l17.3125 0l0 62.6875l-17.3125 0l0 14.125l52.625 0l0 -14.125l-17.75 0l0 -62.6875l17.75 0l0 -14.1875l-52.625 0zm132.9375 91.0l0 -91.0l-17.625 0l-0.0625 58.4375l-25.125 -58.4375l-17.6875 0l0 91.0l17.6875 0l0 -58.6875l25.3125 58.6875l17.5 0zm83.6875 -76.6875l0 -14.3125l-73.375 0l0 14.3125l27.6875 0l0 76.6875l17.625 0l0 -76.6875l28.0625 0zm105.56253 62.5l0 -76.8125l-17.62503 0l0 91.0l60.25003 0l0 -14.1875l-42.625 0zm100.875 14.1875l17.625 0l0 -1.0625q-1.3125 -2.5625 -2.0 -6.125q-0.6875 -3.5625 -0.6875 -9.0l0 -29.0q0 -5.875 -2.1875 -10.34375q-2.1875 -4.46875 -6.0625 -7.40625q-3.875 -2.9375 -9.15625 -4.4375q-5.28125 -1.5 -11.40625 -1.5q-6.8125 0 -12.09375 1.71875q-5.28125 1.71875 -8.90625 4.65625q-3.6875 2.9375 -5.59375 6.8125q-1.90625 3.875 -1.90625 8.1875l17.375 0q0 -1.8125 0.53125 -3.3125q0.53125 -1.5 1.65625 -2.5625q1.25 -1.1875 3.25 -1.84375q2.0 -0.65625 4.75 -0.65625q3.125 0 5.46875 0.78125q2.34375 0.78125 3.90625 2.21875q1.5 1.375 2.25 3.28125q0.75 1.90625 0.75 4.28125l0 4.0l-9.6875 0q-7.5 0 -13.28125 1.34375q-5.78125 1.34375 -9.71875 3.90625q-4.375 2.8125 -6.5625 7.15625q-2.1875 4.34375 -2.1875 9.96875q0 4.375 1.75 8.09375q1.75 3.71875 4.875 6.40625q3.125 2.6875 7.46875 4.1875q4.34375 1.5 9.53125 1.5q3.1875 0 5.9375 -0.59375q2.75 -0.59375 5.0625 -1.65625q2.25 -1.0 4.125 -2.375q1.875 -1.375 3.3125 -2.9375q0.3125 1.8125 0.75 3.4375q0.4375 1.625 1.0625 2.875zm-16.5625 -12.1875q-2.4375 0 -4.28125 -0.59375q-1.84375 -0.59375 -3.09375 -1.59375q-1.25 -1.0625 -1.90625 -2.59375q-0.65625 -1.53125 -0.65625 -3.34375q0 -2.3125 0.875 -4.28125q0.875 -1.96875 2.6875 -3.40625q1.8125 -1.375 4.6875 -2.15625q2.875 -0.78125 6.9375 -0.78125l8.875 0l0 11.625q-0.75 1.3125 -2.0625 2.59375q-1.3125 1.28125 -3.125 2.28125q-1.8125 1.0 -4.0625 1.625q-2.25 0.625 -4.875 0.625zm112.0625 -20.9375l0 -1.3125q0 -6.125 -1.09375 -11.5q-1.09375 -5.375 -3.34375 -9.6875q-1.4375 -2.6875 -3.3125 -4.96875q-1.875 -2.28125 -4.1875 -3.90625q-2.875 -2.125 -6.53125 -3.25q-3.65625 -1.125 -8.03125 -1.125q-3.1875 0 -5.90625 0.65625q-2.71875 0.65625 -5.03125 1.96875q-1.625 0.875 -3.0625 2.09375q-1.4375 1.21875 -2.6875 2.65625l0 -34.5l-17.375 0l0 96.0l15.625 0l0.8125 -7.1875q1.0625 1.375 2.25 2.53125q1.1875 1.15625 2.5625 2.09375q2.5625 1.875 5.78125 2.84375q3.21875 0.96875 7.15625 0.96875q4.3125 0 7.90625 -1.09375q3.59375 -1.09375 6.46875 -3.15625q3.1875 -2.1875 5.53125 -5.5q2.34375 -3.3125 3.78125 -7.375q1.3125 -3.6875 2.0 -8.03125q0.6875 -4.34375 0.6875 -9.21875zm-17.375 -1.3125l0 1.3125q0 2.625 -0.21875 5.0625q-0.21875 2.4375 -0.71875 4.5q-0.625 2.8125 -1.84375 5.03125q-1.21875 2.21875 -3.15625 3.59375q-1.375 1.0 -3.25 1.5625q-1.875 0.5625 -4.1875 0.5625q-2.6875 0 -4.78125 -0.625q-2.09375 -0.625 -3.65625 -1.8125q-1.3125 -0.9375 -2.28125 -2.21875q-0.96875 -1.28125 -1.71875 -2.84375l0 -26.9375q0.5625 -1.1875 1.25 -2.21875q0.6875 -1.03125 1.5 -1.84375q1.6875 -1.6875 4.0625 -2.5625q2.375 -0.875 5.5 -0.875q2.3125 0 4.125 0.53125q1.8125 0.53125 3.25 1.59375q2.1875 1.6875 3.28125 3.71875q1.09375 2.03125 1.78125 4.59375q0.5625 2.1875 0.8125 4.6875q0.25 2.5 0.25 5.1875z" fill-rule="nonzero"/><path fill="#000000" fill-opacity="0.0" d="m-71.485565 246.98557l900.0 0l0 77.5748l-900.0 0z" fill-rule="evenodd"/><path fill="#3b82f6" d="m57.338654 289.54993l5.09375 0q2.78125 0 5.03125 -0.796875q2.25 -0.796875 3.84375 -2.234375q1.578125 -1.40625 2.421875 -3.34375q0.859375 -1.953125 0.859375 -4.25q0 -2.453125 -0.859375 -4.46875q-0.84375 -2.015625 -2.421875 -3.46875q-1.59375 -1.4375 -3.84375 -2.234375q-2.25 -0.8125 -5.03125 -0.8125l-11.671875 0l0 34.125l6.578125 0l0 -12.515625zm0 -5.34375l0 -10.921875l5.09375 0q1.40625 0 2.4375 0.453125q1.03125 0.4375 1.734375 1.203125q0.671875 0.78125 1.015625 1.8125q0.34375 1.03125 0.34375 2.21875q0 1.03125 -0.34375 1.984375q-0.34375 0.953125 -1.015625 1.671875q-0.703125 0.734375 -1.734375 1.15625q-1.03125 0.421875 -2.4375 0.421875l-5.09375 0zm33.382812 5.109375l6.421875 12.75l7.046875 0l0 -0.3125l-7.328125 -14.078125q1.40625 -0.640625 2.53125 -1.5q1.140625 -0.875 1.96875 -2.046875q0.796875 -1.140625 1.21875 -2.609375q0.4375 -1.46875 0.4375 -3.296875q0 -2.53125 -0.875 -4.453125q-0.875 -1.921875 -2.5 -3.203125q-1.640625 -1.296875 -3.9375 -1.953125q-2.296875 -0.671875 -5.125 -0.671875l-11.4375 0l0 34.125l6.578125 0l0 -12.75l5.0 0zm-5.0 -5.34375l0 -10.6875l4.859375 0q1.359375 0 2.40625 0.328125q1.0625 0.328125 1.78125 0.9375q0.828125 0.671875 1.234375 1.71875q0.40625 1.046875 0.40625 2.40625q0 1.125 -0.3125 2.046875q-0.3125 0.90625 -0.921875 1.5625q-0.734375 0.8125 -1.890625 1.25q-1.15625 0.4375 -2.6875 0.4375l-4.875 0zm43.226562 3.140625l0 -5.203125l-14.015625 0l0 -8.609375l16.3125 0l0 -5.359375l-22.921875 0l0 34.125l22.984375 0l0 -5.328125l-16.375 0l0 -9.625l14.015625 0zm15.8828125 -19.171875l-8.171875 0l0 34.125l6.046875 0l0 -10.109375l-0.28125 -15.328125l4.0 14.1875l3.265625 0l4.46875 -14.8125l-0.28125 15.953125l0 10.109375l6.046875 0l0 -34.125l-8.171875 0l-3.6875 12.8125l-3.234375 -12.8125zm22.179688 0l0 5.3125l6.484375 0l0 23.515625l-6.484375 0l0 5.296875l19.734375 0l0 -5.296875l-6.65625 0l0 -23.515625l6.65625 0l0 -5.3125l-19.734375 0zm48.351562 19.171875l0 -5.203125l-14.015625 0l0 -8.609375l16.3125 0l0 -5.359375l-22.921875 0l0 34.125l22.984375 0l0 -5.328125l-16.375 0l0 -9.625l14.015625 0zm19.382812 2.203125l6.421875 12.75l7.046875 0l0 -0.3125l-7.328125 -14.078125q1.40625 -0.640625 2.53125 -1.5q1.140625 -0.875 1.96875 -2.046875q0.796875 -1.140625 1.21875 -2.609375q0.4375 -1.46875 0.4375 -3.296875q0 -2.53125 -0.875 -4.453125q-0.875 -1.921875 -2.5 -3.203125q-1.640625 -1.296875 -3.9375 -1.953125q-2.296875 -0.671875 -5.125 -0.671875l-11.4375 0l0 34.125l6.578125 0l0 -12.75l5.0 0zm-5.0 -5.34375l0 -10.6875l4.859375 0q1.359375 0 2.40625 0.328125q1.0625 0.328125 1.78125 0.9375q0.828125 0.671875 1.234375 1.71875q0.40625 1.046875 0.40625 2.40625q0 1.125 -0.3125 2.046875q-0.3125 0.90625 -0.921875 1.5625q-0.734375 0.8125 -1.890625 1.25q-1.15625 0.4375 -2.6875 0.4375l-4.875 0zm74.84375 3.53125l0 -4.96875q0 -2.3125 -0.4375 -4.375q-0.4375 -2.0625 -1.25 -3.796875q-0.75 -1.53125 -1.796875 -2.796875q-1.046875 -1.265625 -2.421875 -2.15625q-1.390625 -0.9375 -3.109375 -1.4375q-1.71875 -0.5 -3.6875 -0.5q-1.953125 0 -3.625 0.5q-1.65625 0.484375 -2.984375 1.390625q-1.359375 0.9375 -2.40625 2.25q-1.046875 1.3125 -1.765625 2.9375q-0.75 1.703125 -1.140625 3.71875q-0.390625 2.015625 -0.390625 4.265625l0 4.96875q0 2.109375 0.34375 4.015625q0.34375 1.890625 1.0 3.515625q0.71875 1.75 1.796875 3.15625q1.078125 1.390625 2.4375 2.375q1.390625 0.9375 3.078125 1.453125q1.6875 0.515625 3.671875 0.515625q1.875 0 3.5 -0.46875q1.640625 -0.453125 3.0 -1.265625q1.5 -0.9375 2.671875 -2.34375q1.171875 -1.40625 1.96875 -3.09375q0.75 -1.6875 1.140625 -3.671875q0.40625 -1.984375 0.40625 -4.1875zm-6.6875 -5.015625l0 5.015625q0 1.265625 -0.125 2.4375q-0.125 1.171875 -0.390625 2.15625q-0.328125 1.265625 -0.875 2.265625q-0.546875 1.0 -1.34375 1.65625q-0.640625 0.53125 -1.46875 0.8125q-0.8125 0.28125 -1.796875 0.28125q-1.03125 0 -1.84375 -0.296875q-0.796875 -0.3125 -1.4375 -0.875q-0.671875 -0.625 -1.1875 -1.640625q-0.5 -1.03125 -0.75 -2.265625q-0.234375 -0.984375 -0.328125 -2.125q-0.09375 -1.15625 -0.09375 -2.40625l0 -5.015625q0 -1.3125 0.09375 -2.5q0.109375 -1.203125 0.34375 -2.203125q0.3125 -1.3125 0.859375 -2.296875q0.546875 -0.984375 1.34375 -1.640625q0.59375 -0.453125 1.328125 -0.6875q0.734375 -0.234375 1.65625 -0.234375q0.953125 0 1.734375 0.265625q0.796875 0.25 1.421875 0.71875q0.796875 0.640625 1.375 1.640625q0.59375 0.984375 0.953125 2.25q0.28125 1.015625 0.40625 2.203125q0.125 1.171875 0.125 2.484375zm29.398438 10.671875q0 0.90625 -0.375 1.671875q-0.375 0.765625 -1.078125 1.296875q-0.703125 0.546875 -1.734375 0.859375q-1.015625 0.296875 -2.328125 0.296875q-1.46875 0 -2.703125 -0.328125q-1.234375 -0.328125 -2.09375 -1.03125q-0.890625 -0.703125 -1.390625 -1.796875q-0.484375 -1.109375 -0.53125 -2.65625l-6.46875 0q0 2.640625 1.015625 4.609375q1.015625 1.96875 2.78125 3.421875q1.84375 1.484375 4.34375 2.25q2.5 0.765625 5.046875 0.765625q2.609375 0 4.8125 -0.625q2.203125 -0.625 3.796875 -1.84375q1.59375 -1.203125 2.484375 -2.9375q0.90625 -1.75 0.90625 -4.0q0 -2.609375 -1.203125 -4.59375q-1.1875 -2.0 -3.203125 -3.5q-1.328125 -0.90625 -2.921875 -1.609375q-1.59375 -0.703125 -3.359375 -1.203125q-1.640625 -0.4375 -2.9375 -0.953125q-1.296875 -0.515625 -2.21875 -1.15625q-0.90625 -0.609375 -1.390625 -1.375q-0.484375 -0.78125 -0.484375 -1.734375q0 -0.921875 0.359375 -1.703125q0.375 -0.78125 1.078125 -1.375q0.703125 -0.5625 1.71875 -0.875q1.015625 -0.3125 2.328125 -0.3125q1.4375 0 2.5 0.390625q1.0625 0.375 1.796875 1.0625q0.703125 0.703125 1.0625 1.671875q0.359375 0.953125 0.40625 2.09375l6.421875 0q0 -2.296875 -0.890625 -4.21875q-0.890625 -1.921875 -2.484375 -3.328125q-1.59375 -1.375 -3.8125 -2.140625q-2.203125 -0.78125 -4.875 -0.78125q-2.578125 0 -4.78125 0.671875q-2.203125 0.65625 -3.828125 1.90625q-1.609375 1.234375 -2.53125 3.0q-0.90625 1.75 -0.90625 3.90625q0 1.875 0.6875 3.46875q0.6875 1.59375 2.046875 2.90625q1.359375 1.3125 3.5 2.421875q2.15625 1.09375 4.984375 1.875q1.828125 0.484375 3.0625 1.0625q1.234375 0.578125 2.0 1.25q0.75 0.703125 1.0625 1.5q0.328125 0.796875 0.328125 1.71875zm12.5390625 -25.21875l0 5.3125l6.484375 0l0 23.515625l-6.484375 0l0 5.296875l19.734375 0l0 -5.296875l-6.65625 0l0 -23.515625l6.65625 0l0 -5.3125l-19.734375 0zm49.851562 34.125l0 -34.125l-6.609375 0l-0.03125 21.90625l-9.421875 -21.90625l-6.625 0l0 34.125l6.625 0l0 -22.015625l9.5 22.015625l6.5625 0zm31.382812 -28.765625l0 -5.359375l-27.515625 0l0 5.359375l10.375 0l0 28.765625l6.609375 0l0 -28.765625l10.53125 0zm44.109375 16.015625l6.421875 12.75l7.046875 0l0 -0.3125l-7.328125 -14.078125q1.40625 -0.640625 2.53125 -1.5q1.140625 -0.875 1.96875 -2.046875q0.796875 -1.140625 1.21875 -2.609375q0.4375 -1.46875 0.4375 -3.296875q0 -2.53125 -0.875 -4.453125q-0.875 -1.921875 -2.5 -3.203125q-1.640625 -1.296875 -3.9375 -1.953125q-2.296875 -0.671875 -5.125 -0.671875l-11.4375 0l0 34.125l6.578125 0l0 -12.75l5.0 0zm-5.0 -5.34375l0 -10.6875l4.859375 0q1.359375 0 2.40625 0.328125q1.0625 0.328125 1.78125 0.9375q0.828125 0.671875 1.234375 1.71875q0.40625 1.046875 0.40625 2.40625q0 1.125 -0.3125 2.046875q-0.3125 0.90625 -0.921875 1.5625q-0.734375 0.8125 -1.890625 1.25q-1.15625 0.4375 -2.6875 0.4375l-4.875 0zm43.226562 3.140625l0 -5.203125l-14.015625 0l0 -8.609375l16.3125 0l0 -5.359375l-22.921875 0l0 34.125l22.984375 0l0 -5.328125l-16.375 0l0 -9.625l14.015625 0zm25.523468 6.046875q0 0.90625 -0.375 1.671875q-0.375 0.765625 -1.078125 1.296875q-0.703125 0.546875 -1.734375 0.859375q-1.015625 0.296875 -2.328125 0.296875q-1.46875 0 -2.703125 -0.328125q-1.234375 -0.328125 -2.09375 -1.03125q-0.890625 -0.703125 -1.390625 -1.796875q-0.484375 -1.109375 -0.53125 -2.65625l-6.4687805 0q0 2.640625 1.015625 4.609375q1.0156555 1.96875 2.7812805 3.421875q1.84375 1.484375 4.34375 2.25q2.5 0.765625 5.046875 0.765625q2.609375 0 4.8125 -0.625q2.203125 -0.625 3.796875 -1.84375q1.59375 -1.203125 2.484375 -2.9375q0.90625 -1.75 0.90625 -4.0q0 -2.609375 -1.203125 -4.59375q-1.1875 -2.0 -3.203125 -3.5q-1.328125 -0.90625 -2.921875 -1.609375q-1.59375 -0.703125 -3.359375 -1.203125q-1.640625 -0.4375 -2.9375 -0.953125q-1.296875 -0.515625 -2.21875 -1.15625q-0.90625 -0.609375 -1.390625 -1.375q-0.484375 -0.78125 -0.484375 -1.734375q0 -0.921875 0.359375 -1.703125q0.375 -0.78125 1.078125 -1.375q0.703125 -0.5625 1.71875 -0.875q1.015625 -0.3125 2.328125 -0.3125q1.4375 0 2.5 0.390625q1.0625 0.375 1.796875 1.0625q0.703125 0.703125 1.0625 1.671875q0.359375 0.953125 0.40625 2.09375l6.421875 0q0 -2.296875 -0.890625 -4.21875q-0.890625 -1.921875 -2.484375 -3.328125q-1.59375 -1.375 -3.8125 -2.140625q-2.203125 -0.78125 -4.875 -0.78125q-2.578125 0 -4.78125 0.671875q-2.203125 0.65625 -3.828125 1.90625q-1.609375 1.234375 -2.53125 3.0q-0.9062805 1.75 -0.9062805 3.90625q0 1.875 0.6875 3.46875q0.6875305 1.59375 2.0469055 2.90625q1.359375 1.3125 3.5 2.421875q2.15625 1.09375 4.984375 1.875q1.828125 0.484375 3.0625 1.0625q1.234375 0.578125 2.0 1.25q0.75 0.703125 1.0625 1.5q0.328125 0.796875 0.328125 1.71875zm34.898438 -5.65625l0 -4.96875q0 -2.3125 -0.4375 -4.375q-0.4375 -2.0625 -1.25 -3.796875q-0.75 -1.53125 -1.796875 -2.796875q-1.046875 -1.265625 -2.421875 -2.15625q-1.390625 -0.9375 -3.109375 -1.4375q-1.71875 -0.5 -3.6875 -0.5q-1.953125 0 -3.625 0.5q-1.65625 0.484375 -2.984375 1.390625q-1.359375 0.9375 -2.40625 2.25q-1.046875 1.3125 -1.765625 2.9375q-0.75 1.703125 -1.140625 3.71875q-0.390625 2.015625 -0.390625 4.265625l0 4.96875q0 2.109375 0.34375 4.015625q0.34375 1.890625 1.0 3.515625q0.71875 1.75 1.796875 3.15625q1.078125 1.390625 2.4375 2.375q1.390625 0.9375 3.078125 1.453125q1.6875 0.515625 3.671875 0.515625q1.875 0 3.5 -0.46875q1.640625 -0.453125 3.0 -1.265625q1.5 -0.9375 2.671875 -2.34375q1.171875 -1.40625 1.96875 -3.09375q0.75 -1.6875 1.140625 -3.671875q0.40625 -1.984375 0.40625 -4.1875zm-6.6875 -5.015625l0 5.015625q0 1.265625 -0.125 2.4375q-0.125 1.171875 -0.390625 2.15625q-0.328125 1.265625 -0.875 2.265625q-0.546875 1.0 -1.34375 1.65625q-0.640625 0.53125 -1.46875 0.8125q-0.8125 0.28125 -1.796875 0.28125q-1.03125 0 -1.84375 -0.296875q-0.796875 -0.3125 -1.4375 -0.875q-0.671875 -0.625 -1.1875 -1.640625q-0.5 -1.03125 -0.75 -2.265625q-0.234375 -0.984375 -0.328125 -2.125q-0.09375 -1.15625 -0.09375 -2.40625l0 -5.015625q0 -1.3125 0.09375 -2.5q0.109375 -1.203125 0.34375 -2.203125q0.3125 -1.3125 0.859375 -2.296875q0.546875 -0.984375 1.34375 -1.640625q0.59375 -0.453125 1.328125 -0.6875q0.734375 -0.234375 1.65625 -0.234375q0.953125 0 1.734375 0.265625q0.796875 0.25 1.421875 0.71875q0.796875 0.640625 1.375 1.640625q0.59375 0.984375 0.953125 2.25q0.28125 1.015625 0.40625 2.203125q0.125 1.171875 0.125 2.484375zm34.414062 -14.546875l-6.546875 0l-0.015625 22.609375q-0.03125 1.671875 -0.359375 2.9375q-0.328125 1.265625 -0.984375 2.109375q-0.609375 0.8125 -1.53125 1.234375q-0.921875 0.40625 -2.125 0.40625q-1.09375 0 -1.9375 -0.390625q-0.84375 -0.390625 -1.4375 -1.15625q-0.625 -0.84375 -0.953125 -2.125q-0.3125 -1.296875 -0.328125 -3.015625l-0.03125 -22.609375l-6.578125 0l-0.03125 22.609375q0 2.859375 0.8125 5.109375q0.8125 2.234375 2.28125 3.75q1.484375 1.53125 3.546875 2.328125q2.078125 0.796875 4.65625 0.796875q2.75 0 4.890625 -0.796875q2.140625 -0.796875 3.640625 -2.34375q1.484375 -1.53125 2.265625 -3.75q0.78125 -2.234375 0.78125 -5.09375l-0.015625 -22.609375zm17.648438 21.375l6.421875 12.75l7.046875 0l0 -0.3125l-7.328125 -14.078125q1.40625 -0.640625 2.53125 -1.5q1.140625 -0.875 1.96875 -2.046875q0.796875 -1.140625 1.21875 -2.609375q0.4375 -1.46875 0.4375 -3.296875q0 -2.53125 -0.875 -4.453125q-0.875 -1.921875 -2.5 -3.203125q-1.640625 -1.296875 -3.9375 -1.953125q-2.296875 -0.671875 -5.125 -0.671875l-11.4375 0l0 34.125l6.578125 0l0 -12.75l5.0 0zm-5.0 -5.34375l0 -10.6875l4.859375 0q1.359375 0 2.40625 0.328125q1.0625 0.328125 1.78125 0.9375q0.828125 0.671875 1.234375 1.71875q0.40625 1.046875 0.40625 2.40625q0 1.125 -0.3125 2.046875q-0.3125 0.90625 -0.921875 1.5625q-0.734375 0.8125 -1.890625 1.25q-1.15625 0.4375 -2.6875 0.4375l-4.875 0zm45.914062 7.40625l-6.578125 0q-0.09375 1.546875 -0.515625 2.65625q-0.421875 1.09375 -1.15625 1.796875q-0.71875 0.703125 -1.75 1.03125q-1.03125 0.328125 -2.328125 0.328125q-0.953125 0 -1.75 -0.21875q-0.78125 -0.234375 -1.40625 -0.703125q-0.59375 -0.421875 -1.046875 -1.046875q-0.453125 -0.640625 -0.78125 -1.453125q-0.46875 -1.203125 -0.703125 -2.796875q-0.21875 -1.609375 -0.21875 -3.65625l0 -4.640625q0 -1.5 0.140625 -2.796875q0.140625 -1.296875 0.453125 -2.375q0.390625 -1.390625 1.0625 -2.421875q0.671875 -1.046875 1.625 -1.609375q0.5625 -0.328125 1.234375 -0.484375q0.671875 -0.171875 1.4375 -0.171875q1.453125 0 2.5 0.390625q1.046875 0.375 1.75 1.125q0.671875 0.78125 1.03125 1.9375q0.375 1.140625 0.46875 2.65625l6.5625 0q-0.234375 -2.671875 -1.125 -4.796875q-0.890625 -2.140625 -2.4375 -3.609375q-1.546875 -1.484375 -3.75 -2.28125q-2.1875 -0.796875 -5.0 -0.796875q-1.890625 0 -3.546875 0.484375q-1.65625 0.484375 -3.03125 1.375q-1.546875 1.046875 -2.765625 2.578125q-1.21875 1.515625 -1.96875 3.46875q-0.65625 1.59375 -0.984375 3.453125q-0.328125 1.859375 -0.328125 3.921875l0 4.59375q0 2.203125 0.359375 4.171875q0.359375 1.96875 1.046875 3.609375q0.703125 1.640625 1.71875 3.0q1.015625 1.359375 2.328125 2.328125q1.4375 1.03125 3.21875 1.59375q1.796875 0.546875 3.90625 0.546875q2.671875 0 4.875 -0.78125q2.203125 -0.796875 3.796875 -2.25q1.59375 -1.453125 2.546875 -3.515625q0.953125 -2.0625 1.109375 -4.640625zm26.117188 -4.265625l0 -5.203125l-14.015625 0l0 -8.609375l16.3125 0l0 -5.359375l-22.921875 0l0 34.125l22.984375 0l0 -5.328125l-16.375 0l0 -9.625l14.015625 0zm25.523438 6.046875q0 0.90625 -0.375 1.671875q-0.375 0.765625 -1.078125 1.296875q-0.703125 0.546875 -1.734375 0.859375q-1.015625 0.296875 -2.328125 0.296875q-1.46875 0 -2.703125 -0.328125q-1.234375 -0.328125 -2.09375 -1.03125q-0.890625 -0.703125 -1.390625 -1.796875q-0.484375 -1.109375 -0.53125 -2.65625l-6.46875 0q0 2.640625 1.015625 4.609375q1.015625 1.96875 2.78125 3.421875q1.84375 1.484375 4.34375 2.25q2.5 0.765625 5.046875 0.765625q2.609375 0 4.8125 -0.625q2.203125 -0.625 3.796875 -1.84375q1.59375 -1.203125 2.484375 -2.9375q0.90625 -1.75 0.90625 -4.0q0 -2.609375 -1.203125 -4.59375q-1.1875 -2.0 -3.203125 -3.5q-1.328125 -0.90625 -2.921875 -1.609375q-1.59375 -0.703125 -3.359375 -1.203125q-1.640625 -0.4375 -2.9375 -0.953125q-1.296875 -0.515625 -2.21875 -1.15625q-0.90625 -0.609375 -1.390625 -1.375q-0.484375 -0.78125 -0.484375 -1.734375q0 -0.921875 0.359375 -1.703125q0.375 -0.78125 1.078125 -1.375q0.703125 -0.5625 1.71875 -0.875q1.015625 -0.3125 2.328125 -0.3125q1.4375 0 2.5 0.390625q1.0625 0.375 1.796875 1.0625q0.703125 0.703125 1.0625 1.671875q0.359375 0.953125 0.40625 2.09375l6.421875 0q0 -2.296875 -0.890625 -4.21875q-0.890625 -1.921875 -2.484375 -3.328125q-1.59375 -1.375 -3.8125 -2.140625q-2.203125 -0.78125 -4.875 -0.78125q-2.578125 0 -4.78125 0.671875q-2.203125 0.65625 -3.828125 1.90625q-1.609375 1.234375 -2.53125 3.0q-0.90625 1.75 -0.90625 3.90625q0 1.875 0.6875 3.46875q0.6875 1.59375 2.046875 2.90625q1.359375 1.3125 3.5 2.421875q2.15625 1.09375 4.984375 1.875q1.828125 0.484375 3.0625 1.0625q1.234375 0.578125 2.0 1.25q0.75 0.703125 1.0625 1.5q0.328125 0.796875 0.328125 1.71875z" fill-rule="nonzero"/></g></svg>